<?xml version="1.0" standalone="no"?><!DOCTYPE svg PUBLIC "-//W3C//DTD SVG 1.1//EN" "http://www.w3.org/Graphics/SVG/1.1/DTD/svg11.dtd"><svg t="1718159473757" class="icon" viewBox="0 0 1024 1024" version="1.1" xmlns="http://www.w3.org/2000/svg" p-id="5125" xmlns:xlink="http://www.w3.org/1999/xlink" width="200" height="200"><path d="M857.6 725.333333v-298.666666c0-46.933333-38.4-85.333333-85.333333-85.333334H209.066667c-46.933333 0-85.333333 38.4-85.333334 85.333334v298.666666c0 46.933333 38.4 85.333333 85.333334 85.333334h563.2c46.933333 0 85.333333-38.4 85.333333-85.333334z" fill="#CCCCCC" p-id="5126"></path><path d="M85.333333 725.333333V298.666667c0-70.826667 52.053333-128 115.626667-128h270.08V21.333333c0-11.946667 8.533333-21.333333 19.2-21.333333s19.2 9.386667 19.2 21.333333V170.666667h270.08C843.946667 170.666667 896 227.84 896 298.666667v426.666666c0 70.826667-52.053333 128-115.626667 128H200.96C137.386667 853.333333 85.333333 796.16 85.333333 725.333333zM200.96 213.333333c-42.666667 0-77.226667 38.4-77.226667 85.333334v33.28C144.64 311.466667 171.52 298.666667 200.96 298.666667h270.08V213.333333H200.96z m579.413333 0h-270.08v85.333334h270.08c29.866667 0 56.746667 12.8 77.226667 33.28V298.666667c0-46.933333-34.56-85.333333-77.226667-85.333334z m0 597.333334c42.666667 0 77.226667-38.4 77.226667-85.333334v-298.666666c0-46.933333-34.56-85.333333-77.226667-85.333334h-270.08v268.373334L598.613333 512c7.68-8.533333 19.626667-8.533333 27.306667 0s7.68 21.76 0 30.293333l-107.946667 119.04c-2.56 2.986667-2.133333 2.56-8.533333 9.386667-6.826667 6.4-9.813333 11.946667-18.773333 11.946667s-12.373333-4.266667-20.48-13.653334c-5.973333-6.826667-4.266667-5.12-6.826667-7.68l-107.946667-119.04a22.784 22.784 0 0 1 0-30.293333c7.68-8.533333 19.626667-8.533333 27.306667 0l88.32 97.706667V341.333333H200.96c-42.666667 0-77.226667 38.4-77.226667 85.333334v298.666666c0 46.933333 34.56 85.333333 77.226667 85.333334h579.413333z" fill="#666666" p-id="5127"></path></svg>